M48
; DRILL file KiCad 10.0.1 date 2026-05-04T13:37:51
; FORMAT={-:-/ absolute / metric / decimal}
; #@! TF.CreationDate,2026-05-04T13:37:51-05:00
; #@! TF.GenerationSoftware,Kicad,Pcbnew,10.0.1
; #@! TF.FileFunction,Plated,1,2,PTH
FMAT,2
METRIC
; #@! TA.AperFunction,Plated,PTH,ViaDrill
T1C0.300
; #@! TA.AperFunction,Plated,PTH,ComponentDrill
T2C0.700
; #@! TA.AperFunction,Plated,PTH,ComponentDrill
T3C0.800
; #@! TA.AperFunction,Plated,PTH,ComponentDrill
T4C0.813
; #@! TA.AperFunction,Plated,PTH,ComponentDrill
T5C0.889
; #@! TA.AperFunction,Plated,PTH,ComponentDrill
T6C1.210
; #@! TA.AperFunction,Plated,PTH,ComponentDrill
T7C1.500
%
G90
G05
T1
X117.5Y-92.6
X124.5Y-87.5
X127.5Y-87.5
X135.0Y-87.5
X158.5Y-88.0
T2
X98.88Y-73.0
X106.5Y-73.0
X136.5Y-81.0
X136.5Y-86.08
X155.0Y-80.91
X155.0Y-85.99
X170.5Y-80.92
X170.5Y-86.0
T3
X73.5Y-82.0
X76.0Y-82.0
X76.0Y-107.5
X78.0Y-107.5
X90.42Y-98.88
X90.42Y-114.12
X92.96Y-98.88
X92.96Y-114.12
X95.5Y-98.88
X95.5Y-114.12
X98.04Y-98.88
X98.04Y-114.12
X100.58Y-98.88
X100.58Y-114.12
X107.92Y-98.88
X107.92Y-114.12
X110.46Y-98.88
X110.46Y-114.12
X113.0Y-98.88
X113.0Y-114.12
X115.54Y-98.88
X115.54Y-114.12
X118.08Y-98.88
X118.08Y-114.12
T4
X89.26Y-78.38
X89.26Y-86.0
X91.8Y-78.38
X91.8Y-86.0
X94.34Y-78.38
X94.34Y-86.0
X96.88Y-78.38
X96.88Y-86.0
X99.42Y-78.38
X99.42Y-86.0
X101.96Y-78.38
X101.96Y-86.0
X104.5Y-78.38
X104.5Y-86.0
X107.04Y-78.38
X107.04Y-86.0
X109.58Y-78.38
X109.58Y-86.0
X112.12Y-78.38
X112.12Y-86.0
X114.66Y-78.38
X114.66Y-86.0
X117.2Y-78.38
X117.2Y-86.0
T5
X178.88Y-99.0
X178.88Y-114.24
X181.42Y-99.0
X181.42Y-114.24
X183.96Y-99.0
X183.96Y-114.24
X186.5Y-99.0
X186.5Y-114.24
X189.04Y-99.0
X189.04Y-114.24
X191.58Y-99.0
X191.58Y-114.24
X194.12Y-99.0
X194.12Y-114.24
T6
X124.5Y-83.5
X127.04Y-83.5
X145.5Y-83.5
X148.04Y-83.5
X162.5Y-83.5
X165.04Y-83.5
T7
X129.65Y-104.04
X136.0Y-101.5
X155.19Y-103.96
X161.54Y-101.42
X182.65Y-80.04
X189.0Y-77.5
M30
